{"title":"NFS Most Wanted 2012 Trailer [HD]","uid":7347771,"size":60323448,"categoryP":"video","categoryS":"movie_clips","magnet":"?xt=urn:btih:a7a669c6ca5045660b941cf81d51bc049e8727c5&amp;dn=NFS+Most+Wanted+2012+Trailer+%5BHD%5D&amp;tr=udp%3A%2F%2Ftracker.openbittorrent.com%3A80&amp;tr=udp%3A%2F%2Fopen.demonii.com%3A1337&amp;tr=udp%3A%2F%2Ftracker.coppersurfer.tk%3A6969&amp;tr=udp%3A%2F%2Fexodus.desync.com%3A6969","seeders":0,"leechers":1,"uploader":"creeder12","files":-1,"time":1339487966,"description":" &lt;a href=&quot;http://bayimg.com/LaPKPaadb&quot; rel=&quot;nofollow&quot; target=&quot;_NEW&quot;&gt;http://bayimg.com/LaPKPaadb&lt;/a&gt;\n\n\nNFS Most Wanted 2012 Trailer [HD]\n\nGeneral\nFormat                                   : MPEG-4\nFormat profile                           : Base Media / Version 2\nCodec ID                                 : mp42\nFile size                                : 57.5 MiB\nDuration                                 : 1mn 37s\nOverall bit rate mode                    : Variable\nOverall bit rate                         : 4 958 Kbps\n\n\nVideo\nID                                       : 1\nFormat                                   : AVC\nFormat/Info                              : Advanced Video Codec\nFormat profile                           : &lt;a class=&quot;__cf_email__&quot; href=&quot;/cdn-cgi/l/email-protection&quot; data-cfemail=&quot;672f0e000f272b534957&quot;&gt;[email&amp;#160;protected]&lt;/a&gt;&lt;script cf-hash='f9e31' type=&quot;text/javascript&quot;&gt;\n/* &lt;![CDATA[ */!function(){try{var t=&quot;currentScript&quot;in document?document.currentScript:function(){for(var t=document.getElementsByTagName(&quot;script&quot;),e=t.length;e--;)if(t[e].getAttribute(&quot;cf-hash&quot;))return t[e]}();if(t&amp;&amp;t.previousSibling){var e,r,n,i,c=t.previousSibling,a=c.getAttribute(&quot;data-cfemail&quot;);if(a){for(e=&quot;&quot;,r=parseInt(a.substr(0,2),16),n=2;a.length-n;n+=2)i=parseInt(a.substr(n,2),16)^r,e+=String.fromCharCode(i);e=document.createTextNode(e),c.parentNode.replaceChild(e,c)}}}catch(u){}}();/* ]]&gt; */&lt;/script&gt;\nFormat settings, CABAC                   : Yes\nFormat settings, ReFrames                : 1 frame\nFormat settings, GOP                     : M=1, N=30\nCodec ID                                 : avc1\nCodec ID/Info                            : Advanced Video Coding\nDuration                                 : 1mn 37s\nBit rate                                 : 4 806 Kbps\nMaximum bit rate                         : 10.6 Mbps\nWidth                                    : 1 920 pixels\nHeight                                   : 1 080 pixels\nDisplay aspect ratio                     : 16:9\nFrame rate mode                          : Constant\nFrame rate                               : 29.970 fps\nColor space                              : YUV\nChroma subsampling                       : 4:2:0\nBit depth                                : 8 bits\nScan type                                : Progressive\nBits/(Pixel*Frame)                       : 0.077\nStream size                              : 55.8 MiB (97%)\n\nAudio\nID                                       : 2\nFormat                                   : AAC\nFormat/Info                              : Advanced Audio Codec\nFormat profile                           : LC\nCodec ID                                 : 40\nDuration                                 : 1mn 37s\nBit rate mode                            : Variable\nBit rate                                 : 150 Kbps\nMaximum bit rate                         : 187 Kbps\nChannel(s)                               : 2 channels\nChannel positions                        : Front: L R\nSampling rate                            : 44.1 KHz\nCompression mode                         : Lossy\nStream size                              : 1.74 MiB (3%)\n","torrent":{"xt":"urn:btih:a7a669c6ca5045660b941cf81d51bc049e8727c5","amp;dn":"NFS+Most+Wanted+2012+Trailer+%5BHD%5D","amp;tr":["udp%3A%2F%2Ftracker.openbittorrent.com%3A80","udp%3A%2F%2Fopen.demonii.com%3A1337","udp%3A%2F%2Ftracker.coppersurfer.tk%3A6969","udp%3A%2F%2Fexodus.desync.com%3A6969"],"infoHash":"a7a669c6ca5045660b941cf81d51bc049e8727c5","infoHashBuffer":{"type":"Buffer","data":[167,166,105,198,202,80,69,102,11,148,28,248,29,81,188,4,158,135,39,197]},"announce":[],"urlList":[]}}